<svg id="Layer_1" data-name="Layer 1" xmlns="http://www.w3.org/2000/svg" viewBox="0 0 28.03 32.02"><defs><style>.cls-1{fill:#585857;}</style></defs><title>Great Rewards</title><polygon class="cls-1" points="13.09 24.03 9.86 30 3.45 30 8.19 21.72 6.15 21.26 0 32 11.02 32 15.4 24.32 13.09 24.03"/><polygon class="cls-1" points="14.95 24.05 18.18 30.02 24.59 30.02 19.84 21.74 21.89 21.27 28.03 32.02 17.01 32.02 12.64 24.34 14.95 24.05"/><path class="cls-1" d="M15.95,7.89A5.08,5.08,0,1,1,10.87,13a5.09,5.09,0,0,1,5.08-5.08m0-2A7.08,7.08,0,1,0,23,13a7.08,7.08,0,0,0-7.08-7.08Z" transform="translate(-2.1)"/><path class="cls-1" d="M15.95,25.94a1,1,0,0,1-.58-.19l-1.72-1.23L11.59,25a1,1,0,0,1-1.07-.44L9.4,22.77l-2.08-.35a1,1,0,0,1-.82-.82l-.35-2.08L4.36,18.4a1,1,0,0,1-.44-1.07l.48-2.06L3.17,13.55a1,1,0,0,1,0-1.16l1.23-1.72L3.92,8.61a1,1,0,0,1,.44-1.07L6.15,6.42,6.5,4.34a1,1,0,0,1,.82-.82L9.4,3.17l1.12-1.79A1,1,0,0,1,11.59.94l2.06.48L15.37.19a1,1,0,0,1,1.16,0l1.72,1.23L20.3.94a1,1,0,0,1,1.07.44l1.12,1.79,2.08.35a1,1,0,0,1,.82.82l.35,2.08,1.79,1.12A1,1,0,0,1,28,8.61l-.48,2.06,1.23,1.72a1,1,0,0,1,0,1.16l-1.23,1.72L28,17.32a1,1,0,0,1-.44,1.07l-1.79,1.12L25.4,21.6a1,1,0,0,1-.82.82l-2.08.35-1.12,1.79A1,1,0,0,1,20.3,25l-2.06-.48-1.72,1.23A1,1,0,0,1,15.95,25.94Zm-2.08-3.49a1,1,0,0,1,.58.19l1.5,1.07,1.5-1.07a1,1,0,0,1,.81-.16l1.8.42,1-1.57a1,1,0,0,1,.68-.46l1.82-.3.3-1.82a1,1,0,0,1,.46-.68l1.57-1-.42-1.8a1,1,0,0,1,.16-.81L26.69,13l-1.07-1.5a1,1,0,0,1-.16-.81l.42-1.8-1.57-1a1,1,0,0,1-.46-.68l-.3-1.82-1.82-.3A1,1,0,0,1,21,4.61L20.06,3l-1.8.42a1,1,0,0,1-.81-.16l-1.5-1.07L14.44,3.3a1,1,0,0,1-.81.16L11.84,3l-1,1.57a1,1,0,0,1-.68.46l-1.82.3L8,7.2a1,1,0,0,1-.46.68L6,8.86l.42,1.8a1,1,0,0,1-.16.81L5.21,13l1.07,1.5a1,1,0,0,1,.16.81L6,17.08l1.57,1a1,1,0,0,1,.46.68l.3,1.82,1.82.3a1,1,0,0,1,.68.46l1,1.57,1.8-.42Z" transform="translate(-2.1)"/></svg>