<svg id="Layer_1" data-name="Layer 1" xmlns="http://www.w3.org/2000/svg" viewBox="0 0 32 32.01"><defs><style>.cls-1{fill:#585857;}.cls-2{fill:#585858;}.cls-3{fill:#595857;}</style></defs><title>International Opportunities</title><polygon class="cls-1" points="17 1 15 1 15 13 17 13 17 1 17 1"/><path class="cls-1" d="M23.22,24q.09-.48.18-1h0a43.42,43.42,0,0,0,.6-7A46,46,0,0,0,22,3h2a38.11,38.11,0,0,1,2,13,45.59,45.59,0,0,1-.53,7h0q-.08.52-.17,1"/><path class="cls-1" d="M23.4,23h0q.08-.49.15-1A42.54,42.54,0,0,0,24,16,46,46,0,0,0,22,3h2a38.11,38.11,0,0,1,2,13,45.59,45.59,0,0,1-.53,7h0q-.08.52-.17,1"/><path class="cls-1" d="M8.6,23A43.42,43.42,0,0,1,8,16,46,46,0,0,1,10,3H8A38.11,38.11,0,0,0,6,16a45.59,45.59,0,0,0,.53,7h0"/><polygon class="cls-1" points="28 6 4 6 4 8 28 8 28 6 28 6"/><rect class="cls-1" x="1" y="15" width="10" height="2"/><rect class="cls-1" x="21" y="15" width="10" height="2"/><rect class="cls-2" x="15" y="25" width="1.96" height="5" transform="translate(31.96 55) rotate(-180)"/><path class="cls-3" d="M16,24H13a.91.91,0,0,0-1,1v7H10V25a3.23,3.23,0,0,1,.86-2.16A2.9,2.9,0,0,1,13,22h6a2.9,2.9,0,0,1,2.14.82A3.23,3.23,0,0,1,22,25v7H20V25a.91.91,0,0,0-1-1H16"/><path class="cls-2" d="M12,18a4,4,0,1,1,4,4A4,4,0,0,1,12,18Zm2,0a2,2,0,1,0,2-2A2,2,0,0,0,14,18Z"/><path class="cls-1" d="M16,0A16,16,0,0,0,6,28.48v-2.7a14,14,0,1,1,21-1.15v3A16,16,0,0,0,16,0Z"/></svg>