<svg id="Layer_1" data-name="Layer 1" xmlns="http://www.w3.org/2000/svg" viewBox="0 0 32 32"><defs><style>.cls-1{fill:#585857;}</style></defs><title>Strong career</title><rect class="cls-1" x="11" y="27" width="13" height="2"/><rect class="cls-1" y="30" width="13" height="2"/><path class="cls-1" d="M4.05,4a4,4,0,1,1,4,4A4,4,0,0,1,4.05,4Zm2,0a2,2,0,1,0,2-2A2,2,0,0,0,6.06,4Z"/><path class="cls-1" d="M10,8H7a2.9,2.9,0,0,0-2.14.82A3.23,3.23,0,0,0,4,11V29H6V11a.89.89,0,0,1,1-1h3Z"/><path class="cls-1" d="M16.53,4.65l-4.32,5.81A3.56,3.56,0,0,1,9.77,12H7a.89.89,0,0,1-1-1v0H4v0a3.23,3.23,0,0,0,.86,2.16A2.9,2.9,0,0,0,7,14H9.77c2.42,0,4-2.31,4.07-2.37l4.29-5.78Z"/><path class="cls-1" d="M16,26V24.25c0-2.42-2.31-4-2.37-4.07L7.87,15.88,6.68,17.49l5.81,4.32A3.56,3.56,0,0,1,14,24.25V26"/><rect class="cls-1" x="19" y="23.99" width="13" height="2"/></svg>