<svg id="Layer_1" data-name="Layer 1" xmlns="http://www.w3.org/2000/svg" viewBox="0 0 32 32"><defs><style>.cls-1{fill:#575857;}</style></defs><title>Team Spirit</title><path class="cls-1" d="M6.07,8a4,4,0,1,1,4-4A4,4,0,0,1,6.07,8Zm0-6a2,2,0,1,0,2,2A2,2,0,0,0,6.07,2Z" transform="translate(0 0)"/><path class="cls-1" d="M10,32H8V11a.89.89,0,0,0-1-1H4.26a3.56,3.56,0,0,0-2.44,1.54L0,14V10.66l.19-.25C.23,10.34,1.84,8,4.26,8H7a2.9,2.9,0,0,1,2.14.82A3.23,3.23,0,0,1,10,11Z" transform="translate(0 0)"/><rect class="cls-1" x="4" y="12" width="1.96" height="20"/><path class="cls-1" d="M21.93,4a4,4,0,1,1,4,4A4,4,0,0,1,21.93,4Zm2,0a2,2,0,1,0,2-2A2,2,0,0,0,23.94,4Z" transform="translate(0 0)"/><path class="cls-1" d="M22,32h2V11a.89.89,0,0,1,1-1h2.75a3.56,3.56,0,0,1,2.44,1.54L32,14V10.66l-.19-.25c0-.07-1.65-2.37-4.07-2.37H25a2.9,2.9,0,0,0-2.14.82A3.23,3.23,0,0,0,22,11Z" transform="translate(0 0)"/><rect class="cls-1" x="26.04" y="12" width="1.96" height="20" transform="translate(54.04 44) rotate(-180)"/><path class="cls-1" d="M16,8a4,4,0,1,1,4-4A4,4,0,0,1,16,8Zm0-6a2,2,0,1,0,2,2A2,2,0,0,0,16,2Z" transform="translate(0 0)"/><rect class="cls-1" x="13" y="12" width="2" height="20"/><rect class="cls-1" x="17" y="12" width="2" height="20"/><rect class="cls-1" x="15" y="4" width="2" height="10" transform="translate(25 -7) rotate(90)"/></svg>